<svg width="280" height="81" viewBox="0 0 280 81" fill="none" xmlns="http://www.w3.org/2000/svg">
<path d="M278.188 71.6104C278.188 75.9203 274.627 79.4113 270.222 79.4113H9.53038C5.12766 79.4113 1.55396 75.9203 1.55396 71.6104V9.40091C1.55396 5.09311 5.12766 1.58984 9.53038 1.58984H270.22C274.627 1.58984 278.186 5.09311 278.186 9.40091L278.188 71.6104Z" fill="black"/>
<path d="M269.381 1.68346C274.178 1.68346 278.082 5.49209 278.082 10.1726V70.8276C278.082 75.5081 274.178 79.3168 269.381 79.3168H10.3608C5.56376 79.3168 1.66032 75.5081 1.66032 70.8276V10.1726C1.66032 5.49209 5.56376 1.68346 10.3608 1.68346H269.381ZM269.381 0.0634689H10.3608C4.66496 0.0634689 0 4.61512 0 10.1726V70.8276C0 76.3851 4.66496 80.9368 10.3608 80.9368H269.381C275.077 80.9368 279.742 76.3851 279.742 70.8276V10.1726C279.742 4.61512 275.077 0.0634689 269.381 0.0634689Z" fill="#A6A6A6"/>
<path d="M62.4303 40.063C62.3702 33.5466 67.8987 30.3764 68.1516 30.2288C65.0205 25.7747 60.1675 25.1662 58.4621 25.1176C54.3862 24.6991 50.4325 27.4973 48.3562 27.4973C46.2384 27.4973 43.0411 25.1581 39.5951 25.2268C35.1606 25.2935 31.0122 27.7986 28.7369 31.6886C24.0414 39.6202 27.5434 51.2761 32.042 57.6873C34.2924 60.8272 36.922 64.3331 40.3638 64.2098C43.7311 64.0743 44.9889 62.1151 49.0524 62.1151C53.0786 62.1151 54.2598 64.2098 57.77 64.1309C61.3839 64.0743 63.6591 60.9768 65.8307 57.8086C68.4313 54.2098 69.4757 50.6655 69.5171 50.4835C69.4321 50.4552 62.4987 47.8733 62.4303 40.063Z" fill="white"/>
<path d="M55.7994 20.9001C57.6105 18.6902 58.8496 15.6838 58.5056 12.6328C55.8843 12.746 52.6062 14.4019 50.7184 16.5633C49.0483 18.4678 47.5563 21.5895 47.9417 24.5252C50.8863 24.7395 53.9096 23.0756 55.7994 20.9001Z" fill="white"/>
<path d="M101.64 20.3008C101.64 22.6805 100.908 24.4719 99.4474 25.6748C98.0943 26.7848 96.1713 27.3408 93.6805 27.3408C92.4455 27.3408 91.3887 27.2883 90.5039 27.1831V14.1807C91.6581 13.9988 92.9014 13.9058 94.2442 13.9058C96.6168 13.9058 98.4051 14.4092 99.6111 15.4161C100.962 16.5544 101.64 18.1819 101.64 20.3008ZM99.35 20.3595C99.35 18.8168 98.9314 17.634 98.0943 16.8091C97.2571 15.9862 96.0345 15.5738 94.4244 15.5738C93.7406 15.5738 93.1584 15.6183 92.6755 15.7113V25.596C92.9428 25.6364 93.4319 25.6546 94.1426 25.6546C95.8045 25.6546 97.0872 25.2038 97.9906 24.302C98.8941 23.4003 99.35 22.0861 99.35 20.3595Z" fill="white"/>
<path d="M113.781 22.3795C113.781 23.8453 113.352 25.0463 112.494 25.9885C111.594 26.9569 110.403 27.4401 108.915 27.4401C107.481 27.4401 106.339 26.9771 105.488 26.0471C104.638 25.1191 104.213 23.9484 104.213 22.5372C104.213 21.0612 104.651 19.8502 105.529 18.91C106.408 17.9699 107.589 17.4988 109.077 17.4988C110.511 17.4988 111.663 17.9618 112.535 18.8898C113.364 19.7915 113.781 20.9561 113.781 22.3795ZM111.528 22.4482C111.528 21.5687 111.333 20.8146 110.946 20.1858C110.49 19.4256 109.841 19.0455 108.998 19.0455C108.126 19.0455 107.463 19.4256 107.007 20.1858C106.617 20.8146 106.424 21.5809 106.424 22.4866C106.424 23.3661 106.619 24.1203 107.007 24.7491C107.477 25.5093 108.132 25.8894 108.977 25.8894C109.806 25.8894 110.457 25.5032 110.925 24.7289C111.327 24.0879 111.528 23.3277 111.528 22.4482Z" fill="white"/>
<path d="M130.059 17.6929L127.003 27.2238H125.014L123.748 23.0851C123.426 22.0519 123.165 21.0249 122.962 20.0058H122.923C122.734 21.0532 122.473 22.0782 122.137 23.0851L120.793 27.2238H118.781L115.906 17.6929H118.138L119.243 22.2238C119.51 23.2954 119.73 24.3164 119.906 25.2828H119.945C120.107 24.4862 120.374 23.4713 120.751 22.244L122.137 17.6949H123.907L125.235 22.147C125.557 23.2327 125.818 24.278 126.019 25.2849H126.079C126.226 24.3043 126.448 23.259 126.742 22.147L127.927 17.6949H130.059V17.6929Z" fill="white"/>
<path d="M141.318 27.2233H139.146V21.7643C139.146 20.0822 138.491 19.2411 137.177 19.2411C136.533 19.2411 136.013 19.4716 135.609 19.9346C135.209 20.3976 135.006 20.9435 135.006 21.5682V27.2212H132.834V20.4158C132.834 19.5787 132.807 18.6709 132.755 17.6883H134.664L134.765 19.1784H134.825C135.078 18.7154 135.455 18.3333 135.951 18.028C136.539 17.6721 137.198 17.4922 137.919 17.4922C138.831 17.4922 139.589 17.7793 140.192 18.3555C140.942 19.0611 141.318 20.1145 141.318 21.5136V27.2233Z" fill="white"/>
<path d="M147.306 27.2235H145.136V13.3193H147.306V27.2235Z" fill="white"/>
<path d="M160.091 22.3795C160.091 23.8453 159.662 25.0463 158.805 25.9885C157.905 26.9569 156.712 27.4401 155.226 27.4401C153.79 27.4401 152.648 26.9771 151.799 26.0471C150.949 25.1191 150.524 23.9484 150.524 22.5372C150.524 21.0612 150.961 19.8502 151.84 18.91C152.719 17.9699 153.9 17.4988 155.385 17.4988C156.821 17.4988 157.972 17.9618 158.846 18.8898C159.675 19.7915 160.091 20.9561 160.091 22.3795ZM157.837 22.4482C157.837 21.5687 157.642 20.8146 157.255 20.1858C156.801 19.4256 156.15 19.0455 155.309 19.0455C154.434 19.0455 153.771 19.4256 153.317 20.1858C152.928 20.8146 152.735 21.5809 152.735 22.4866C152.735 23.3661 152.93 24.1203 153.317 24.7491C153.788 25.5093 154.443 25.8894 155.288 25.8894C156.117 25.8894 156.766 25.5032 157.234 24.7289C157.638 24.0879 157.837 23.3277 157.837 22.4482Z" fill="white"/>
<path d="M170.602 27.2238H168.652L168.49 26.1259H168.43C167.763 27.0014 166.812 27.4401 165.577 27.4401C164.654 27.4401 163.908 27.151 163.347 26.5768C162.837 26.0552 162.582 25.4062 162.582 24.6358C162.582 23.4713 163.08 22.5837 164.08 21.969C165.079 21.3544 166.484 21.0532 168.293 21.0673V20.8894C168.293 19.6338 167.618 19.0071 166.265 19.0071C165.301 19.0071 164.451 19.2436 163.718 19.7127L163.276 18.3217C164.184 17.7737 165.305 17.4988 166.627 17.4988C169.18 17.4988 170.461 18.813 170.461 21.4414V24.9513C170.461 25.9035 170.508 26.6617 170.602 27.2238ZM168.347 23.9484V22.4786C165.952 22.4381 164.754 23.079 164.754 24.3993C164.754 24.8967 164.891 25.2687 165.17 25.5174C165.45 25.766 165.807 25.8894 166.231 25.8894C166.708 25.8894 167.153 25.7418 167.56 25.4486C167.968 25.1534 168.219 24.7794 168.312 24.3204C168.335 24.2173 168.347 24.092 168.347 23.9484Z" fill="white"/>
<path d="M182.941 27.2235H181.014L180.913 25.693H180.852C180.237 26.8575 179.188 27.4398 177.715 27.4398C176.538 27.4398 175.558 26.9889 174.781 26.0872C174.004 25.1855 173.616 24.0148 173.616 22.5773C173.616 21.0346 174.037 19.7852 174.883 18.8309C175.701 17.9412 176.704 17.4964 177.898 17.4964C179.209 17.4964 180.127 17.9271 180.649 18.7904H180.691V13.3193H182.865V24.6558C182.865 25.5838 182.889 26.439 182.941 27.2235ZM180.691 23.2041V21.6149C180.691 21.3399 180.67 21.1175 180.631 20.9477C180.508 20.4382 180.245 20.0096 179.845 19.6638C179.441 19.3181 178.954 19.1442 178.393 19.1442C177.583 19.1442 176.948 19.4576 176.482 20.0864C176.02 20.7152 175.786 21.5179 175.786 22.4985C175.786 23.4406 176.008 24.2049 176.453 24.7932C176.924 25.42 177.558 25.7334 178.351 25.7334C179.064 25.7334 179.634 25.4726 180.067 24.9489C180.486 24.4657 180.691 23.8834 180.691 23.2041Z" fill="white"/>
<path d="M201.514 22.3795C201.514 23.8453 201.085 25.0463 200.227 25.9885C199.328 26.9569 198.138 27.4401 196.649 27.4401C195.217 27.4401 194.075 26.9771 193.221 26.0471C192.372 25.1191 191.947 23.9484 191.947 22.5372C191.947 21.0612 192.384 19.8502 193.263 18.91C194.141 17.9699 195.322 17.4988 196.812 17.4988C198.244 17.4988 199.398 17.9618 200.269 18.8898C201.097 19.7915 201.514 20.9561 201.514 22.3795ZM199.264 22.4482C199.264 21.5687 199.069 20.8146 198.681 20.1858C198.223 19.4256 197.577 19.0455 196.731 19.0455C195.861 19.0455 195.198 19.4256 194.74 20.1858C194.35 20.8146 194.158 21.5809 194.158 22.4866C194.158 23.3661 194.353 24.1203 194.74 24.7491C195.21 25.5093 195.865 25.8894 196.711 25.8894C197.54 25.8894 198.192 25.5032 198.661 24.7289C199.061 24.0879 199.264 23.3277 199.264 22.4482Z" fill="white"/>
<path d="M213.19 27.2233H211.021V21.7643C211.021 20.0822 210.366 19.2411 209.05 19.2411C208.406 19.2411 207.886 19.4716 207.484 19.9346C207.082 20.3976 206.881 20.9435 206.881 21.5682V27.2212H204.707V20.4158C204.707 19.5787 204.682 18.6709 204.63 17.6883H206.537L206.638 19.1784H206.698C206.953 18.7154 207.33 18.3333 207.824 18.028C208.414 17.6721 209.071 17.4922 209.794 17.4922C210.704 17.4922 211.462 17.7793 212.065 18.3555C212.817 19.0611 213.19 20.1145 213.19 21.5136V27.2233Z" fill="white"/>
<path d="M227.806 19.2791H225.414V23.9091C225.414 25.0858 225.839 25.6742 226.68 25.6742C227.07 25.6742 227.393 25.6418 227.648 25.5751L227.704 27.1825C227.275 27.3402 226.712 27.419 226.017 27.419C225.159 27.419 224.492 27.1643 224.009 26.6548C223.525 26.1453 223.284 25.288 223.284 24.085V19.2791H221.856V17.692H223.284V15.9451L225.412 15.3184V17.69H227.804V19.2791H227.806Z" fill="white"/>
<path d="M239.302 27.2235H237.128V21.805C237.128 20.0965 236.473 19.2413 235.162 19.2413C234.155 19.2413 233.467 19.7366 233.089 20.7273C233.025 20.9356 232.988 21.1903 232.988 21.4896V27.2215H230.818V13.3193H232.988V19.0634H233.029C233.713 18.0181 234.693 17.4964 235.964 17.4964C236.863 17.4964 237.607 17.7835 238.197 18.3598C238.933 19.0775 239.302 20.145 239.302 21.5563V27.2235Z" fill="white"/>
<path d="M251.161 22.0073C251.161 22.3875 251.132 22.7069 251.08 22.9677H244.567C244.596 23.9099 244.907 24.6276 245.51 25.125C246.061 25.5698 246.772 25.7922 247.642 25.7922C248.606 25.7922 249.484 25.6426 250.276 25.3414L250.616 26.8132C249.69 27.2055 248.6 27.4016 247.338 27.4016C245.825 27.4016 244.633 26.9669 243.771 26.0975C242.905 25.2281 242.476 24.0615 242.476 22.5977C242.476 21.1602 242.876 19.9633 243.682 19.009C244.524 17.99 245.661 17.4805 247.097 17.4805C248.502 17.4805 249.569 17.99 250.29 19.009C250.873 19.8177 251.161 20.8185 251.161 22.0073ZM249.089 21.4594C249.105 20.8306 248.962 20.2888 248.668 19.8319C248.291 19.2435 247.717 18.9483 246.94 18.9483C246.231 18.9483 245.653 19.2354 245.212 19.8116C244.851 20.2706 244.638 20.8185 244.567 21.4594H249.089Z" fill="white"/>
<path d="M111.161 63.7581H106.455L103.877 55.8548H94.9174L92.4619 63.7581H87.8804L96.7575 36.8516H102.24L111.161 63.7581ZM103.1 52.539L100.769 45.5131C100.523 44.7953 100.061 43.1051 99.3788 40.4444H99.2959C99.0245 41.5887 98.5872 43.279 97.9863 45.5131L95.6966 52.539H103.1Z" fill="white"/>
<path d="M133.99 53.8202C133.99 57.1198 133.076 59.728 131.249 61.6427C129.612 63.3471 127.579 64.1983 125.152 64.1983C122.533 64.1983 120.652 63.2803 119.506 61.4445H119.423V71.6649H115.005V50.745C115.005 48.6706 114.949 46.5416 114.841 44.358H118.727L118.973 47.4332H119.056C120.529 45.1162 122.765 43.9597 125.766 43.9597C128.111 43.9597 130.07 44.8635 131.636 46.673C133.207 48.4846 133.99 50.8663 133.99 53.8202ZM129.489 53.9779C129.489 52.0895 129.054 50.5327 128.18 49.3075C127.225 48.0297 125.942 47.3908 124.334 47.3908C123.244 47.3908 122.253 47.7466 121.369 48.4482C120.482 49.1558 119.902 50.0798 119.63 51.2242C119.493 51.7579 119.425 52.1946 119.425 52.5384V55.7733C119.425 57.1845 119.868 58.3754 120.755 59.3479C121.642 60.3204 122.794 60.8056 124.212 60.8056C125.876 60.8056 127.171 60.1789 128.097 58.9294C129.025 57.6779 129.489 56.028 129.489 53.9779Z" fill="white"/>
<path d="M156.86 53.8202C156.86 57.1198 155.947 59.728 154.117 61.6427C152.482 63.3471 150.449 64.1983 148.023 64.1983C145.403 64.1983 143.522 63.2803 142.378 61.4445H142.295V71.6649H137.877V50.745C137.877 48.6706 137.821 46.5416 137.714 44.358H141.599L141.846 47.4332H141.928C143.4 45.1162 145.636 43.9597 148.638 43.9597C150.982 43.9597 152.94 44.8635 154.511 46.673C156.075 48.4846 156.86 50.8663 156.86 53.8202ZM152.36 53.9779C152.36 52.0895 151.922 50.5327 151.048 49.3075C150.093 48.0297 148.814 47.3908 147.204 47.3908C146.112 47.3908 145.124 47.7466 144.237 48.4482C143.35 49.1558 142.772 50.0798 142.5 51.2242C142.366 51.7579 142.295 52.1946 142.295 52.5384V55.7733C142.295 57.1845 142.739 58.3754 143.621 59.3479C144.508 60.3184 145.66 60.8056 147.082 60.8056C148.746 60.8056 150.041 60.1789 150.967 58.9294C151.896 57.6779 152.36 56.028 152.36 53.9779Z" fill="white"/>
<path d="M182.431 56.2133C182.431 58.5021 181.617 60.3642 179.982 61.8017C178.185 63.3726 175.684 64.1571 172.47 64.1571C169.503 64.1571 167.124 63.5991 165.323 62.481L166.347 58.8882C168.286 60.0326 170.415 60.6068 172.733 60.6068C174.397 60.6068 175.692 60.2388 176.623 59.5069C177.549 58.775 178.011 57.7924 178.011 56.5672C178.011 55.4754 177.63 54.5554 176.865 53.8094C176.105 53.0633 174.834 52.3698 173.061 51.7289C168.233 49.9719 165.821 47.3981 165.821 44.0136C165.821 41.8017 166.666 39.9881 168.359 38.5769C170.046 37.1636 172.296 36.458 175.11 36.458C177.619 36.458 179.704 36.8846 181.368 37.7358L180.264 41.2498C178.709 40.4248 176.952 40.0124 174.986 40.0124C173.432 40.0124 172.217 40.3864 171.347 41.1305C170.611 41.7956 170.243 42.6064 170.243 43.5668C170.243 44.6303 170.663 45.5098 171.509 46.2012C172.244 46.8401 173.581 47.5316 175.52 48.2776C177.893 49.2097 179.636 50.2995 180.757 51.549C181.874 52.7944 182.431 54.3532 182.431 56.2133Z" fill="white"/>
<path d="M197.038 47.5918H192.168V57.0116C192.168 59.4074 193.026 60.6044 194.746 60.6044C195.535 60.6044 196.19 60.5376 196.708 60.4042L196.83 63.6775C195.96 63.995 194.814 64.1547 193.395 64.1547C191.65 64.1547 190.287 63.6351 189.302 62.5979C188.322 61.5587 187.829 59.8158 187.829 57.3674V47.5878H184.928V44.3529H187.829V40.8005L192.168 39.5227V44.3529H197.038V47.5918Z" fill="white"/>
<path d="M219.009 53.8982C219.009 56.8804 218.135 59.3289 216.39 61.2436C214.56 63.2148 212.131 64.1975 209.104 64.1975C206.186 64.1975 203.864 63.2533 202.131 61.3649C200.399 59.4765 199.533 57.0927 199.533 54.2197C199.533 51.2132 200.424 48.7507 202.212 46.836C203.996 44.9193 206.404 43.9609 209.431 43.9609C212.349 43.9609 214.697 44.9051 216.468 46.7955C218.164 48.6293 219.009 50.9969 219.009 53.8982ZM214.425 54.0377C214.425 52.2484 214.034 50.7139 213.24 49.434C212.314 47.8853 210.99 47.113 209.274 47.113C207.498 47.113 206.149 47.8873 205.223 49.434C204.429 50.7159 204.038 52.2747 204.038 54.1186C204.038 55.9079 204.429 57.4425 205.223 58.7203C206.178 60.269 207.513 61.0414 209.235 61.0414C210.921 61.0414 212.245 60.2529 213.201 58.6799C214.015 57.3758 214.425 55.825 214.425 54.0377Z" fill="white"/>
<path d="M233.369 48.149C232.932 48.0701 232.466 48.0297 231.976 48.0297C230.422 48.0297 229.221 48.6018 228.375 49.7482C227.639 50.7591 227.271 52.0369 227.271 53.5796V63.7595H222.855L222.896 50.468C222.896 48.2318 222.84 46.1959 222.73 44.36H226.578L226.74 48.0721H226.862C227.329 46.7963 228.064 45.7693 229.071 44.9989C230.056 44.3055 231.119 43.9597 232.265 43.9597C232.673 43.9597 233.042 43.988 233.369 44.0386V48.149Z" fill="white"/>
<path d="M253.127 53.1397C253.127 53.912 253.075 54.563 252.965 55.0948H239.712C239.764 57.0115 240.404 58.4773 241.635 59.4882C242.752 60.392 244.196 60.8449 245.97 60.8449C247.932 60.8449 249.722 60.5396 251.332 59.9269L252.025 62.9193C250.143 63.7199 247.922 64.1182 245.358 64.1182C242.275 64.1182 239.855 63.2326 238.093 61.4635C236.336 59.6944 235.456 57.3188 235.456 54.3386C235.456 51.413 236.274 48.9767 237.913 47.0337C239.629 44.9593 241.948 43.9221 244.865 43.9221C247.731 43.9221 249.901 44.9593 251.374 47.0337C252.541 48.6815 253.127 50.7195 253.127 53.1397ZM248.914 52.0216C248.943 50.7438 248.655 49.6399 248.056 48.7078C247.292 47.5088 246.117 46.9104 244.536 46.9104C243.091 46.9104 241.917 47.4947 241.019 48.6674C240.284 49.5994 239.846 50.7175 239.712 52.0196H248.914V52.0216Z" fill="white"/>
</svg>
