<svg width="280" height="81" viewBox="0 0 280 81" fill="none" xmlns="http://www.w3.org/2000/svg">
<path d="M269.639 80.9365H10.6186C4.92277 80.9365 0.257812 76.3849 0.257812 70.8274V10.1724C0.257812 4.61487 4.92277 0.0632248 10.6186 0.0632248H269.639C275.335 0.0632248 280 4.61487 280 10.1724V70.8274C280 76.3849 275.335 80.9365 269.639 80.9365Z" fill="black"/>
<path d="M269.639 1.68322C274.436 1.68322 278.34 5.49184 278.34 10.1724V70.8274C278.34 75.5079 274.436 79.3165 269.639 79.3165H10.6186C5.82157 79.3165 1.91813 75.5079 1.91813 70.8274V10.1724C1.91813 5.49184 5.82157 1.68322 10.6186 1.68322H269.639ZM269.639 0.0632248H10.6186C4.92277 0.0632248 0.257812 4.61487 0.257812 10.1724V70.8274C0.257812 76.3849 4.92277 80.9365 10.6186 80.9365H269.639C275.335 80.9365 280 76.3849 280 70.8274V10.1724C280 4.61487 275.335 0.0632248 269.639 0.0632248Z" fill="#A6A6A6"/>
<path d="M21.8809 15.3054C21.2722 15.9271 20.9199 16.895 20.9199 18.1486V62.8614C20.9199 64.1149 21.2722 65.0829 21.8809 65.7046L22.0311 65.8411L47.7104 40.7956V40.2042L22.0311 15.1588L21.8809 15.3054Z" fill="url(#paint0_linear_142_2810)"/>
<path d="M56.2605 49.1482L47.7102 40.7955V40.2041L56.2708 31.8514L56.4625 31.9601L66.6006 37.5884C69.4938 39.1856 69.4938 41.814 66.6006 43.4214L56.4625 49.0395L56.2605 49.1482Z" fill="url(#paint1_linear_142_2810)"/>
<path d="M56.4624 49.0403L47.7101 40.5006L21.8806 65.7053C22.8416 66.6909 24.4087 66.8097 26.1907 65.8241L56.4624 49.0403Z" fill="url(#paint2_linear_142_2810)"/>
<path d="M56.4624 31.9598L26.1907 15.1761C24.4087 14.2005 22.8416 14.3193 21.8806 15.305L47.7101 40.4995L56.4624 31.9598Z" fill="url(#paint3_linear_142_2810)"/>
<path d="M98.5147 20.7734C98.5147 22.4616 97.9967 23.8137 96.9761 24.8221C95.8027 26.0175 94.2745 26.619 92.4018 26.619C90.612 26.619 89.0838 26.0074 87.8301 24.8019C86.5738 23.5787 85.947 22.0775 85.947 20.2806C85.947 18.4837 86.5738 16.9825 87.8301 15.7694C89.0838 14.5537 90.612 13.9421 92.4018 13.9421C93.2928 13.9421 94.1424 14.1216 94.9532 14.4552C95.7613 14.7913 96.4192 15.2462 96.8958 15.8073L95.8131 16.8738C94.9816 15.916 93.8497 15.4434 92.4018 15.4434C91.0963 15.4434 89.9644 15.8882 89.0035 16.7853C88.0529 17.6851 87.5763 18.8501 87.5763 20.2806C87.5763 21.711 88.0529 22.8862 89.0035 23.7859C89.9644 24.673 91.0963 25.1279 92.4018 25.1279C93.7876 25.1279 94.9532 24.673 95.8727 23.7758C96.4788 23.1819 96.8233 22.3631 96.914 21.3168H92.4018V19.856H98.4214C98.494 20.1719 98.5147 20.4777 98.5147 20.7734Z" fill="white" stroke="white" stroke-width="0.212127" stroke-miterlimit="10"/>
<path d="M108.064 15.7093H102.41V19.5508H107.508V21.0115H102.41V24.853H108.064V26.3416H100.809V14.2207H108.064V15.7093Z" fill="white" stroke="white" stroke-width="0.212127" stroke-miterlimit="10"/>
<path d="M114.804 26.3416H113.203V15.7093H109.735V14.2207H118.275V15.7093H114.804V26.3416Z" fill="white" stroke="white" stroke-width="0.212127" stroke-miterlimit="10"/>
<path d="M124.456 26.3416V14.2207H126.054V26.3416H124.456Z" fill="white" stroke="white" stroke-width="0.212127" stroke-miterlimit="10"/>
<path d="M133.138 26.3416H131.55V15.7093H128.069V14.2207H136.619V15.7093H133.138V26.3416Z" fill="white" stroke="white" stroke-width="0.212127" stroke-miterlimit="10"/>
<path d="M152.787 24.7817C151.562 26.0074 150.044 26.619 148.234 26.619C146.413 26.619 144.895 26.0074 143.67 24.7817C142.447 23.5585 141.838 22.0573 141.838 20.2806C141.838 18.5039 142.447 17.0027 143.67 15.7795C144.895 14.5537 146.413 13.9421 148.234 13.9421C150.034 13.9421 151.552 14.5537 152.777 15.7896C154.01 17.0229 154.618 18.514 154.618 20.2806C154.618 22.0573 154.01 23.5585 152.787 24.7817ZM144.853 23.7657C145.775 24.673 146.897 25.1279 148.234 25.1279C149.56 25.1279 150.692 24.673 151.603 23.7657C152.523 22.8584 152.989 21.6933 152.989 20.2806C152.989 18.8678 152.523 17.7027 151.603 16.7955C150.692 15.8882 149.56 15.4332 148.234 15.4332C146.897 15.4332 145.775 15.8882 144.853 16.7955C143.934 17.7027 143.468 18.8678 143.468 20.2806C143.468 21.6933 143.934 22.8584 144.853 23.7657Z" fill="white" stroke="white" stroke-width="0.212127" stroke-miterlimit="10"/>
<path d="M156.864 26.3416V14.2207H158.807L164.847 23.6475H164.917L164.847 21.3173V14.2207H166.445V26.3416H164.777L158.452 16.4498H158.382L158.452 18.79V26.3416H156.864Z" fill="white" stroke="white" stroke-width="0.212127" stroke-miterlimit="10"/>
<path d="M141.445 44.0431C136.578 44.0431 132.602 47.6571 132.602 52.6434C132.602 57.5894 136.578 61.2413 141.445 61.2413C146.322 61.2413 150.298 57.5894 150.298 52.6434C150.298 47.6571 146.322 44.0431 141.445 44.0431ZM141.445 57.8547C138.774 57.8547 136.477 55.704 136.477 52.6434C136.477 49.5425 138.774 47.4296 141.445 47.4296C144.115 47.4296 146.423 49.5425 146.423 52.6434C146.423 55.704 144.115 57.8547 141.445 57.8547ZM122.15 44.0431C117.273 44.0431 113.307 47.6571 113.307 52.6434C113.307 57.5894 117.273 61.2413 122.15 61.2413C127.025 61.2413 130.993 57.5894 130.993 52.6434C130.993 47.6571 127.025 44.0431 122.15 44.0431ZM122.15 57.8547C119.477 57.8547 117.172 55.704 117.172 52.6434C117.172 49.5425 119.477 47.4296 122.15 47.4296C124.821 47.4296 127.118 49.5425 127.118 52.6434C127.118 55.704 124.821 57.8547 122.15 57.8547ZM99.1906 46.679V50.3335H108.135C107.873 52.3756 107.174 53.8768 106.101 54.9231C104.796 56.1867 102.762 57.5894 99.1906 57.5894C93.6864 57.5894 89.3763 53.2551 89.3763 47.8846C89.3763 42.5141 93.6864 38.1798 99.1906 38.1798C102.167 38.1798 104.332 39.3145 105.93 40.7854L108.57 38.2101C106.334 36.1276 103.361 34.5278 99.1906 34.5278C91.6427 34.5278 85.2993 40.52 85.2993 47.8846C85.2993 55.2491 91.6427 61.2413 99.1906 61.2413C103.27 61.2413 106.334 59.9372 108.743 57.4908C111.212 55.0823 111.981 51.6957 111.981 48.9612C111.981 48.112 111.908 47.3311 111.779 46.679H99.1906ZM193.075 49.5121C192.347 47.5889 190.102 44.0431 185.527 44.0431C180.994 44.0431 177.22 47.5282 177.22 52.6434C177.22 57.4605 180.956 61.2413 185.962 61.2413C190.011 61.2413 192.347 58.8328 193.308 57.4301L190.304 55.4765C189.301 56.907 187.936 57.8547 185.962 57.8547C184.002 57.8547 182.595 56.9778 181.694 55.2491L193.482 50.4902L193.075 49.5121ZM181.057 52.3756C180.956 49.0597 183.696 47.3614 185.659 47.3614C187.198 47.3614 188.503 48.112 188.939 49.1861L181.057 52.3756ZM171.475 60.7181H175.35V35.4452H171.475V60.7181ZM165.129 45.9588H165C164.13 44.9529 162.469 44.0431 160.366 44.0431C155.952 44.0431 151.917 47.8239 151.917 52.6712C151.917 57.4908 155.952 61.2413 160.366 61.2413C162.469 61.2413 164.13 60.3239 165 59.2877H165.129V60.521C165.129 63.809 163.329 65.5756 160.426 65.5756C158.058 65.5756 156.589 63.9076 155.983 62.5049L152.614 63.8773C153.585 66.1569 156.157 68.9622 160.426 68.9622C164.969 68.9622 168.802 66.354 168.802 60.008V44.5662H165.129V45.9588ZM160.698 57.8547C158.027 57.8547 155.792 55.6737 155.792 52.6712C155.792 49.641 158.027 47.4296 160.698 47.4296C163.329 47.4296 165.404 49.641 165.404 52.6712C165.404 55.6737 163.329 57.8547 160.698 57.8547ZM211.217 35.4452H201.949V60.7181H205.814V51.1422H211.217C215.509 51.1422 219.718 48.112 219.718 43.2925C219.718 38.4755 215.498 35.4452 211.217 35.4452ZM211.318 47.6268H205.814V38.9607H211.318C214.203 38.9607 215.851 41.2984 215.851 43.2925C215.851 45.2486 214.203 47.6268 211.318 47.6268ZM235.207 43.9951C232.415 43.9951 229.511 45.198 228.317 47.8643L231.747 49.267C232.485 47.8643 233.842 47.4094 235.277 47.4094C237.282 47.4094 239.315 48.5846 239.346 50.6595V50.9249C238.647 50.5306 237.15 49.9468 235.308 49.9468C231.615 49.9468 227.851 51.9308 227.851 55.6332C227.851 59.0198 230.877 61.2009 234.277 61.2009C236.878 61.2009 238.313 60.056 239.214 58.7241H239.346V60.6777H243.079V50.983C243.079 46.5021 239.65 43.9951 235.207 43.9951ZM234.741 57.8446C233.477 57.8446 231.716 57.233 231.716 55.704C231.716 53.7479 233.912 52.9973 235.813 52.9973C237.515 52.9973 238.313 53.3637 239.346 53.8464C239.043 56.1867 236.979 57.8446 234.741 57.8446ZM256.678 44.5485L252.235 55.5043H252.103L247.511 44.5485H243.343L250.243 59.8589L246.306 68.3784H250.345L260.977 44.5485H256.678ZM221.842 60.7181H225.717V35.4452H221.842V60.7181Z" fill="white"/>
<defs>
<linearGradient id="paint0_linear_142_2810" x1="45.4304" y1="63.327" x2="11.5094" y2="28.5617" gradientUnits="userSpaceOnUse">
<stop stop-color="#00A0FF"/>
<stop offset="0.0066" stop-color="#00A1FF"/>
<stop offset="0.2601" stop-color="#00BEFF"/>
<stop offset="0.5122" stop-color="#00D2FF"/>
<stop offset="0.7604" stop-color="#00DFFF"/>
<stop offset="1" stop-color="#00E3FF"/>
</linearGradient>
<linearGradient id="paint1_linear_142_2810" x1="70.3681" y1="40.497" x2="20.2281" y2="40.497" gradientUnits="userSpaceOnUse">
<stop stop-color="#FFE000"/>
<stop offset="0.4087" stop-color="#FFBD00"/>
<stop offset="0.7754" stop-color="#FFA500"/>
<stop offset="1" stop-color="#FF9C00"/>
</linearGradient>
<linearGradient id="paint2_linear_142_2810" x1="51.7032" y1="35.8583" x2="5.70363" y2="-11.2864" gradientUnits="userSpaceOnUse">
<stop stop-color="#FF3A44"/>
<stop offset="1" stop-color="#C31162"/>
</linearGradient>
<linearGradient id="paint3_linear_142_2810" x1="15.3788" y1="80.5799" x2="35.9197" y2="59.5279" gradientUnits="userSpaceOnUse">
<stop stop-color="#32A071"/>
<stop offset="0.0685" stop-color="#2DA771"/>
<stop offset="0.4762" stop-color="#15CF74"/>
<stop offset="0.8009" stop-color="#06E775"/>
<stop offset="1" stop-color="#00F076"/>
</linearGradient>
</defs>
</svg>
