<svg width="86" height="99" viewBox="0 0 86 99" fill="none" xmlns="http://www.w3.org/2000/svg">
<path d="M85.5 18L77 0L69 18H85.5Z" fill="#106CCC"/>
<path d="M0 6C0 2.68629 2.68629 0 6 0H77V93C77 96.3137 74.3137 99 71 99H6C2.68629 99 0 96.3137 0 93V6Z" fill="#1D86F5"/>
<g clip-path="url(#clip0_482_417)">
<path d="M54.6064 36.4664C54.5349 36.3214 54.4977 36.1618 54.4977 36.0001C54.4977 35.8384 54.5349 35.6789 54.6064 35.5339L55.9491 32.7871C56.6966 31.2578 56.1043 29.4349 54.6006 28.6371L51.8999 27.2041C51.7569 27.1288 51.633 27.0216 51.538 26.8908C51.4429 26.76 51.3792 26.6091 51.3518 26.4497L50.8236 23.4383C50.5295 21.7617 48.9785 20.635 47.2934 20.8734L44.2662 21.3016C44.1062 21.3248 43.943 21.3108 43.7892 21.2608C43.6354 21.2109 43.4952 21.1262 43.3794 21.0134L41.182 18.8878C39.9585 17.7041 38.0418 17.704 36.8184 18.8878L34.621 21.0136C34.5051 21.1264 34.3649 21.211 34.2111 21.261C34.0574 21.311 33.8942 21.3249 33.7342 21.3018L30.707 20.8736C29.0213 20.6351 27.4709 21.7619 27.1768 23.4386L26.6486 26.4498C26.6212 26.6092 26.5575 26.7601 26.4624 26.8909C26.3674 27.0217 26.2436 27.1289 26.1005 27.2043L23.3998 28.6372C21.8961 29.435 21.3038 31.258 22.0514 32.7873L23.394 35.534C23.4655 35.679 23.5026 35.8386 23.5026 36.0003C23.5026 36.162 23.4655 36.3215 23.394 36.4665L22.0513 39.2132C21.3038 40.7426 21.8961 42.5654 23.3998 43.3632L26.1005 44.7962C26.2435 44.8715 26.3674 44.9787 26.4624 45.1095C26.5574 45.2403 26.6212 45.3912 26.6486 45.5506L27.1768 48.562C27.4445 50.0883 28.7533 51.1587 30.2575 51.1586C30.4057 51.1586 30.556 51.1482 30.7071 51.1268L33.7342 50.6986C33.8943 50.6755 34.0575 50.6894 34.2112 50.7394C34.365 50.7894 34.5052 50.874 34.6211 50.9868L36.8184 53.1125C37.4303 53.7044 38.2151 54.0003 39.0002 54.0002C39.7851 54.0001 40.5704 53.7043 41.182 53.1125L43.3794 50.9868C43.6165 50.7575 43.9396 50.6528 44.2662 50.6986L47.2934 51.1268C48.9793 51.3653 50.5295 50.2386 50.8236 48.5619L51.3518 45.5507C51.3793 45.3913 51.443 45.2404 51.538 45.1096C51.6331 44.9788 51.7569 44.8716 51.8999 44.7962L54.6006 43.3632C56.1043 42.5655 56.6966 40.7425 55.9491 39.2131L54.6064 36.4664ZM34.8475 26.6567C36.9464 26.6567 38.6541 28.3643 38.6541 30.4633C38.6541 32.5623 36.9464 34.2699 34.8475 34.2699C32.7485 34.2699 31.0409 32.5623 31.0409 30.4633C31.0409 28.3643 32.7485 26.6567 34.8475 26.6567ZM32.8827 43.5857C32.68 43.7884 32.4143 43.8898 32.1486 43.8898C31.883 43.8898 31.6172 43.7885 31.4146 43.5857C31.0091 43.1803 31.0091 42.5229 31.4146 42.1175L45.1176 28.4145C45.523 28.0091 46.1804 28.0091 46.5858 28.4145C46.9912 28.8199 46.9912 29.4772 46.5858 29.8827L32.8827 43.5857ZM43.1527 45.3437C41.0538 45.3437 39.3461 43.636 39.3461 41.537C39.3461 39.4381 41.0538 37.7304 43.1527 37.7304C45.2517 37.7304 46.9594 39.4381 46.9594 41.537C46.9594 43.636 45.2517 45.3437 43.1527 45.3437Z" fill="white"/>
<path d="M43.1527 39.807C42.1986 39.807 41.4224 40.5831 41.4224 41.5372C41.4224 42.4913 42.1986 43.2674 43.1527 43.2674C44.1068 43.2674 44.8829 42.4913 44.8829 41.5372C44.8829 40.5831 44.1068 39.807 43.1527 39.807ZM34.8474 28.7332C33.8934 28.7332 33.1172 29.5093 33.1172 30.4634C33.1172 31.4175 33.8934 32.1937 34.8474 32.1937C35.8015 32.1937 36.5777 31.4175 36.5777 30.4634C36.5777 29.5094 35.8015 28.7332 34.8474 28.7332Z" fill="white"/>
</g>
<path d="M16.3649 85.1965C15.0737 85.1965 13.9135 84.9719 12.8842 84.5228C11.8737 84.055 11.0784 83.4187 10.4983 82.614C9.91814 81.7906 9.61872 80.8456 9.60001 79.7789H12.3228C12.4164 80.6959 12.7907 81.4725 13.4456 82.1088C14.1193 82.7263 15.0924 83.0351 16.3649 83.0351C17.5813 83.0351 18.5357 82.7357 19.2281 82.1368C19.9392 81.5193 20.2948 80.7333 20.2948 79.7789C20.2948 79.0304 20.0889 78.4222 19.6772 77.9544C19.2655 77.4865 18.7509 77.131 18.1334 76.8877C17.5158 76.6444 16.6831 76.3824 15.6351 76.1017C14.3439 75.7649 13.3053 75.428 12.5193 75.0912C11.7521 74.7543 11.0877 74.2304 10.5263 73.5192C9.98363 72.7894 9.71229 71.8163 9.71229 70.5999C9.71229 69.5333 9.98363 68.5882 10.5263 67.7648C11.069 66.9414 11.8269 66.3052 12.8 65.8561C13.7918 65.4069 14.924 65.1824 16.1965 65.1824C18.0305 65.1824 19.5275 65.6409 20.6878 66.5578C21.8667 67.4748 22.5311 68.6912 22.6808 70.207H19.8737C19.7802 69.4584 19.3872 68.8034 18.6948 68.242C18.0024 67.6619 17.0854 67.3719 15.9439 67.3719C14.8772 67.3719 14.007 67.6526 13.3334 68.214C12.6597 68.7567 12.3228 69.5239 12.3228 70.5157C12.3228 71.2268 12.5193 71.807 12.9123 72.2561C13.324 72.7052 13.8199 73.0514 14.4 73.2947C14.9989 73.5192 15.8316 73.7812 16.8983 74.0807C18.1895 74.4362 19.2281 74.7918 20.0141 75.1473C20.8001 75.4842 21.4737 76.0175 22.0351 76.7473C22.5966 77.4584 22.8773 78.4316 22.8773 79.6666C22.8773 80.621 22.6246 81.5193 22.1194 82.3614C21.6141 83.2035 20.8656 83.8865 19.8737 84.4105C18.8819 84.9345 17.7123 85.1965 16.3649 85.1965ZM38.2012 80.6491H29.6679L28.0959 85H25.4012L32.4749 65.5473H35.4223L42.4679 85H39.7732L38.2012 80.6491ZM37.4714 78.5719L33.9345 68.6912L30.3977 78.5719H37.4714ZM48.1052 82.9228H54.9544V85H45.5508V65.435H48.1052V82.9228ZM60.2215 67.5122V74.0526H67.3513V76.1579H60.2215V82.8947H68.1935V85H57.6671V65.4069H68.1935V67.5122H60.2215Z" fill="white"/>
<defs>
<clipPath id="clip0_482_417">
<rect width="36" height="36" fill="white" transform="translate(21 18)"/>
</clipPath>
</defs>
</svg>
